<svg xmlns="http://www.w3.org/2000/svg" viewBox="0 0 800 800" width="800" height="800" role="img" aria-label="ClearGate favicon">
  <rect width="800" height="800" fill="#23272e"></rect>
  <path d="M 640 328 L 640 240 A 80 80 0 0 0 560 160 L 240 160 A 80 80 0 0 0 160 240 L 160 560 A 80 80 0 0 0 240 640 L 560 640 A 80 80 0 0 0 640 560 L 640 472" fill="none" stroke="#f97316" stroke-width="72" stroke-linecap="butt" stroke-linejoin="round"></path>
  <path d="M 532 328 L 532 308 A 40 40 0 0 0 492 268 L 308 268 A 40 40 0 0 0 268 308 L 268 492 A 40 40 0 0 0 308 532 L 492 532 A 40 40 0 0 0 532 492 L 532 400 L 676 400 M 532 400 L 340 400" fill="none" stroke="#f97316" stroke-width="72" stroke-linecap="butt" stroke-linejoin="round"></path>
</svg>