<svg xmlns="http://www.w3.org/2000/svg" viewBox="0 0 1280 640" width="1280" height="640" role="img" aria-label="ClearGate GitHub banner">
  <defs>
    <linearGradient id="bg" x1="0" y1="0" x2="1" y2="1">
      <stop offset="0" stop-color="#2a2f37"></stop>
      <stop offset="1" stop-color="#181b21"></stop>
    </linearGradient>
    <radialGradient id="halo" cx="0.27" cy="0.5" r="0.5">
      <stop offset="0" stop-color="#f97316" stop-opacity="0.35"></stop>
      <stop offset="1" stop-color="#f97316" stop-opacity="0"></stop>
    </radialGradient>
    <filter id="neonGlow" x="-20%" y="-20%" width="140%" height="140%">
      <feGaussianBlur stdDeviation="12.5" result="b1"></feGaussianBlur>
      <feGaussianBlur stdDeviation="6.25" result="b2"></feGaussianBlur>
      <feMerge><feMergeNode in="b1"></feMergeNode><feMergeNode in="b2"></feMergeNode><feMergeNode in="SourceGraphic"></feMergeNode></feMerge>
    </filter>
  </defs>
  <rect width="1280" height="640" fill="url(#bg)"></rect>
  <circle cx="346" cy="320" r="360" fill="url(#halo)"></circle>
  <svg x="160" y="160" width="320" height="320" viewBox="0 0 800 800">
    <g filter="url(#neonGlow)">
      <path d="M 640 328 L 640 240 A 80 80 0 0 0 560 160 L 240 160 A 80 80 0 0 0 160 240 L 160 560 A 80 80 0 0 0 240 640 L 560 640 A 80 80 0 0 0 640 560 L 640 472" fill="none" stroke="#f97316" stroke-width="72" stroke-linecap="butt" stroke-linejoin="round"></path>
      <path d="M 532 328 L 532 308 A 40 40 0 0 0 492 268 L 308 268 A 40 40 0 0 0 268 308 L 268 492 A 40 40 0 0 0 308 532 L 492 532 A 40 40 0 0 0 532 492 L 532 400 L 676 400 M 532 400 L 340 400" fill="none" stroke="#f97316" stroke-width="72" stroke-linecap="butt" stroke-linejoin="round"></path>
    </g>
  </svg>
  <g font-family="system-ui, -apple-system, Segoe UI, Roboto, Helvetica, Arial, sans-serif" fill="#ffffff">
    <text x="540" y="305" font-weight="700" font-size="96" letter-spacing="-2">ClearGate</text>
    <text x="540" y="345" font-weight="400" font-size="22" fill="#9aa3b2">The planning scaffold that turns AI agents</text>
    <text x="540" y="375" font-weight="400" font-size="22" fill="#9aa3b2">into a disciplined engineering team</text>
    <line x1="540" y1="400" x2="620" y2="400" stroke="#f97316" stroke-width="3" stroke-linecap="round"></line>
    <text x="540" y="438" font-weight="500" font-size="18" letter-spacing="2" fill="#f97316">OPEN SOURCE · MIT LICENSED</text>
  </g>
</svg>