<svg xmlns="http://www.w3.org/2000/svg" viewBox="0 0 1400 400" width="1400" height="400" role="img" aria-label="ClearGate horizontal logo">
  <rect width="100%" height="100%" fill="#23272e"></rect>
  <defs>
    <filter id="neonGlow" x="-20%" y="-20%" width="140%" height="140%">
      <feGaussianBlur stdDeviation="12.5" result="b1"></feGaussianBlur>
      <feGaussianBlur stdDeviation="6.25" result="b2"></feGaussianBlur>
      <feMerge><feMergeNode in="b1"></feMergeNode><feMergeNode in="b2"></feMergeNode><feMergeNode in="SourceGraphic"></feMergeNode></feMerge>
    </filter>
  </defs>
  <svg x="40" y="40" width="320" height="320" viewBox="0 0 800 800">
    <g filter="url(#neonGlow)">
      <path d="M 640 328 L 640 240 A 80 80 0 0 0 560 160 L 240 160 A 80 80 0 0 0 160 240 L 160 560 A 80 80 0 0 0 240 640 L 560 640 A 80 80 0 0 0 640 560 L 640 472" fill="none" stroke="#f97316" stroke-width="72" stroke-linecap="butt" stroke-linejoin="round"></path>
      <path d="M 532 328 L 532 308 A 40 40 0 0 0 492 268 L 308 268 A 40 40 0 0 0 268 308 L 268 492 A 40 40 0 0 0 308 532 L 492 532 A 40 40 0 0 0 532 492 L 532 400 L 676 400 M 532 400 L 340 400" fill="none" stroke="#f97316" stroke-width="72" stroke-linecap="butt" stroke-linejoin="round"></path>
    </g>
  </svg>
  <text x="400" y="220" font-family="system-ui, -apple-system, Segoe UI, Roboto, Helvetica, Arial, sans-serif" font-size="140" font-weight="bold" fill="#ffffff">ClearGate</text>
</svg>